<mxfile host="app.diagrams.net" modified="2023-04-07T18:41:52.126Z" agent="Mozilla/5.0 (Windows NT 10.0; Win64; x64) AppleWebKit/537.36 (KHTML, like Gecko) Chrome/112.0.0.0 Safari/537.36" etag="RK3vyA9YJjF51uMm4R4p" version="21.1.5" type="device" pages="2">
  <diagram id="s9PQbSp__KKQVtL2HOXq" name="Class">
    <mxGraphModel dx="-364" dy="523" grid="1" gridSize="10" guides="1" tooltips="1" connect="1" arrows="1" fold="1" page="1" pageScale="1" pageWidth="827" pageHeight="1169" math="0" shadow="0">
      <root>
        <mxCell id="0" />
        <mxCell id="1" parent="0" />
        <mxCell id="DH4nmSj8IvAm2rDmWUqV-107" value="1" style="text;align=center;fontStyle=1;verticalAlign=middle;spacingLeft=3;spacingRight=3;strokeColor=none;rotatable=0;points=[[0,0.5],[1,0.5]];portConstraint=eastwest;html=1;" parent="1" vertex="1">
          <mxGeometry x="2660" y="1170" width="30" height="26" as="geometry" />
        </mxCell>
        <mxCell id="DH4nmSj8IvAm2rDmWUqV-108" value="1" style="text;align=center;fontStyle=1;verticalAlign=middle;spacingLeft=3;spacingRight=3;strokeColor=none;rotatable=0;points=[[0,0.5],[1,0.5]];portConstraint=eastwest;html=1;" parent="1" vertex="1">
          <mxGeometry x="2940" y="1082" width="30" height="26" as="geometry" />
        </mxCell>
        <mxCell id="DH4nmSj8IvAm2rDmWUqV-110" value="&lt;font style=&quot;font-size: 14px;&quot;&gt;*&lt;/font&gt;" style="text;align=center;fontStyle=1;verticalAlign=middle;spacingLeft=3;spacingRight=3;strokeColor=none;rotatable=0;points=[[0,0.5],[1,0.5]];portConstraint=eastwest;html=1;" parent="1" vertex="1">
          <mxGeometry x="2820" y="1140" width="35" height="30" as="geometry" />
        </mxCell>
        <mxCell id="DH4nmSj8IvAm2rDmWUqV-111" value="" style="endArrow=none;html=1;rounded=0;entryX=0.5;entryY=1;entryDx=0;entryDy=0;" parent="1" source="yRA-he5OFufWY-U0mKkY-31" target="yRA-he5OFufWY-U0mKkY-68" edge="1">
          <mxGeometry width="50" height="50" relative="1" as="geometry">
            <mxPoint x="2454" y="1196" as="sourcePoint" />
            <mxPoint x="2291.6400000000003" y="580.54" as="targetPoint" />
            <Array as="points" />
          </mxGeometry>
        </mxCell>
        <mxCell id="DH4nmSj8IvAm2rDmWUqV-112" value="1" style="text;align=center;fontStyle=1;verticalAlign=middle;spacingLeft=3;spacingRight=3;strokeColor=none;rotatable=0;points=[[0,0.5],[1,0.5]];portConstraint=eastwest;html=1;" parent="1" vertex="1">
          <mxGeometry x="2428" y="520" width="36" height="24" as="geometry" />
        </mxCell>
        <mxCell id="DH4nmSj8IvAm2rDmWUqV-113" value="1..*" style="text;align=center;fontStyle=1;verticalAlign=middle;spacingLeft=3;spacingRight=3;strokeColor=none;rotatable=0;points=[[0,0.5],[1,0.5]];portConstraint=eastwest;html=1;" parent="1" vertex="1">
          <mxGeometry x="2464" y="1180" width="40" height="26" as="geometry" />
        </mxCell>
        <mxCell id="DH4nmSj8IvAm2rDmWUqV-117" value="" style="endArrow=none;html=1;rounded=0;exitX=0.997;exitY=0.552;exitDx=0;exitDy=0;exitPerimeter=0;entryX=0;entryY=0.5;entryDx=0;entryDy=0;" parent="1" source="yRA-he5OFufWY-U0mKkY-94" edge="1">
          <mxGeometry width="50" height="50" relative="1" as="geometry">
            <mxPoint x="2670" y="1189.6640000000002" as="sourcePoint" />
            <mxPoint x="2860" y="1162.0000000000002" as="targetPoint" />
          </mxGeometry>
        </mxCell>
        <mxCell id="DH4nmSj8IvAm2rDmWUqV-119" value="1" style="text;html=1;align=center;verticalAlign=middle;resizable=0;points=[];autosize=1;strokeColor=none;fillColor=none;" parent="1" vertex="1">
          <mxGeometry x="2569" y="805.5" width="30" height="30" as="geometry" />
        </mxCell>
        <mxCell id="DH4nmSj8IvAm2rDmWUqV-120" value="1" style="text;html=1;align=center;verticalAlign=middle;resizable=0;points=[];autosize=1;strokeColor=none;fillColor=none;" parent="1" vertex="1">
          <mxGeometry x="2640" y="479" width="30" height="30" as="geometry" />
        </mxCell>
        <mxCell id="yRA-he5OFufWY-U0mKkY-9" value="1..*" style="text;html=1;align=center;verticalAlign=middle;resizable=0;points=[];autosize=1;strokeColor=none;fillColor=none;" parent="1" vertex="1">
          <mxGeometry x="2450" y="805.5" width="40" height="30" as="geometry" />
        </mxCell>
        <mxCell id="yRA-he5OFufWY-U0mKkY-14" value="1..*" style="text;html=1;align=center;verticalAlign=middle;resizable=0;points=[];autosize=1;strokeColor=none;fillColor=none;" parent="1" vertex="1">
          <mxGeometry x="3260" y="981.5" width="40" height="30" as="geometry" />
        </mxCell>
        <mxCell id="yRA-he5OFufWY-U0mKkY-29" value="" style="endArrow=none;html=1;rounded=0;exitX=0.553;exitY=0;exitDx=0;exitDy=0;exitPerimeter=0;entryX=0.421;entryY=0.964;entryDx=0;entryDy=0;entryPerimeter=0;" parent="1" target="yRA-he5OFufWY-U0mKkY-28" edge="1">
          <mxGeometry relative="1" as="geometry">
            <mxPoint x="2965.07" y="1108" as="sourcePoint" />
            <mxPoint x="3314" y="995" as="targetPoint" />
            <Array as="points" />
          </mxGeometry>
        </mxCell>
        <mxCell id="yRA-he5OFufWY-U0mKkY-28" value="être selectionnés dans" style="text;html=1;align=center;verticalAlign=middle;resizable=0;points=[];autosize=1;strokeColor=none;fillColor=none;" parent="1" vertex="1">
          <mxGeometry x="3035" y="1018" width="140" height="30" as="geometry" />
        </mxCell>
        <mxCell id="yRA-he5OFufWY-U0mKkY-30" value="" style="endArrow=none;html=1;rounded=0;exitX=0.873;exitY=-0.004;exitDx=0;exitDy=0;exitPerimeter=0;entryX=0.386;entryY=1.023;entryDx=0;entryDy=0;entryPerimeter=0;" parent="1" source="yRA-he5OFufWY-U0mKkY-28" target="yRA-he5OFufWY-U0mKkY-92" edge="1">
          <mxGeometry relative="1" as="geometry">
            <mxPoint x="2975" y="1118" as="sourcePoint" />
            <mxPoint x="3254.86" y="997.6800000000003" as="targetPoint" />
            <Array as="points" />
          </mxGeometry>
        </mxCell>
        <mxCell id="yRA-he5OFufWY-U0mKkY-32" value="" style="endArrow=none;html=1;rounded=0;entryX=0.226;entryY=1.015;entryDx=0;entryDy=0;entryPerimeter=0;exitX=0.003;exitY=0.55;exitDx=0;exitDy=0;exitPerimeter=0;" parent="1" source="yRA-he5OFufWY-U0mKkY-94" target="yRA-he5OFufWY-U0mKkY-31" edge="1">
          <mxGeometry width="50" height="50" relative="1" as="geometry">
            <mxPoint x="2500" y="1230" as="sourcePoint" />
            <mxPoint x="2292" y="607" as="targetPoint" />
            <Array as="points" />
          </mxGeometry>
        </mxCell>
        <mxCell id="yRA-he5OFufWY-U0mKkY-31" value="Commander" style="text;html=1;align=center;verticalAlign=middle;resizable=0;points=[];autosize=1;strokeColor=none;fillColor=none;" parent="1" vertex="1">
          <mxGeometry x="2130" y="801" width="90" height="30" as="geometry" />
        </mxCell>
        <mxCell id="yRA-he5OFufWY-U0mKkY-41" value="&lt;p style=&quot;margin:0px;margin-top:4px;text-align:center;&quot;&gt;&lt;b&gt;Admin&lt;/b&gt;&lt;/p&gt;&lt;hr size=&quot;1&quot;&gt;&lt;p style=&quot;margin:0px;margin-left:4px;&quot;&gt;&lt;br&gt;&lt;/p&gt;&lt;hr size=&quot;1&quot;&gt;&lt;p style=&quot;margin:0px;margin-left:4px;&quot;&gt;+ Créer()&lt;/p&gt;&lt;p style=&quot;margin:0px;margin-left:4px;&quot;&gt;+ Autoriser()&lt;/p&gt;&lt;p style=&quot;margin:0px;margin-left:4px;&quot;&gt;+ gérer()&lt;/p&gt;&lt;p style=&quot;margin:0px;margin-left:4px;&quot;&gt;+s&#39;inscrire()&lt;/p&gt;" style="verticalAlign=top;align=left;overflow=fill;fontSize=12;fontFamily=Helvetica;html=1;whiteSpace=wrap;" parent="1" vertex="1">
          <mxGeometry x="2390.25" y="388.7" width="160" height="121.3" as="geometry" />
        </mxCell>
        <mxCell id="yRA-he5OFufWY-U0mKkY-58" value="&lt;p style=&quot;margin:0px;margin-top:4px;text-align:center;&quot;&gt;&lt;b&gt;Service&lt;/b&gt;&lt;/p&gt;&lt;hr size=&quot;1&quot;&gt;&lt;p style=&quot;margin:0px;margin-left:4px;&quot;&gt;-id_service : string&lt;/p&gt;&lt;p style=&quot;margin:0px;margin-left:4px;&quot;&gt;&lt;span style=&quot;background-color: initial;&quot;&gt;+nom: string&lt;/span&gt;&lt;/p&gt;&lt;p style=&quot;margin:0px;margin-left:4px;&quot;&gt;&lt;span style=&quot;background-color: initial;&quot;&gt;+tel&lt;/span&gt;&lt;span style=&quot;background-color: initial;&quot;&gt;: string&lt;/span&gt;&lt;/p&gt;&lt;p style=&quot;margin:0px;margin-left:4px;&quot;&gt;+Photo: string&lt;/p&gt;&lt;p style=&quot;margin:0px;margin-left:4px;&quot;&gt;+Statu: string&lt;/p&gt;&lt;hr size=&quot;1&quot;&gt;&lt;p style=&quot;margin:0px;margin-left:4px;&quot;&gt;&lt;br&gt;&lt;/p&gt;" style="verticalAlign=top;align=left;overflow=fill;fontSize=12;fontFamily=Helvetica;html=1;whiteSpace=wrap;" parent="1" vertex="1">
          <mxGeometry x="2450" y="835" width="160" height="135" as="geometry" />
        </mxCell>
        <mxCell id="yRA-he5OFufWY-U0mKkY-59" value="" style="endArrow=none;html=1;rounded=0;exitX=0.25;exitY=0;exitDx=0;exitDy=0;" parent="1" source="yRA-he5OFufWY-U0mKkY-58" target="yRA-he5OFufWY-U0mKkY-60" edge="1">
          <mxGeometry width="50" height="50" relative="1" as="geometry">
            <mxPoint x="2290" y="907" as="sourcePoint" />
            <mxPoint x="2275" y="519" as="targetPoint" />
          </mxGeometry>
        </mxCell>
        <mxCell id="yRA-he5OFufWY-U0mKkY-60" value="Créer" style="text;html=1;align=center;verticalAlign=middle;resizable=0;points=[];autosize=1;strokeColor=none;fillColor=none;" parent="1" vertex="1">
          <mxGeometry x="2454" y="680" width="50" height="30" as="geometry" />
        </mxCell>
        <mxCell id="yRA-he5OFufWY-U0mKkY-61" value="" style="endArrow=none;html=1;rounded=0;entryX=0.193;entryY=0.994;entryDx=0;entryDy=0;entryPerimeter=0;" parent="1" source="yRA-he5OFufWY-U0mKkY-60" target="yRA-he5OFufWY-U0mKkY-41" edge="1">
          <mxGeometry width="50" height="50" relative="1" as="geometry">
            <mxPoint x="2460" y="660" as="sourcePoint" />
            <mxPoint x="2275" y="519" as="targetPoint" />
          </mxGeometry>
        </mxCell>
        <mxCell id="yRA-he5OFufWY-U0mKkY-63" value="&lt;p style=&quot;margin:0px;margin-top:4px;text-align:center;&quot;&gt;&lt;b&gt;Responsable_Service&lt;/b&gt;&lt;/p&gt;&lt;hr size=&quot;1&quot;&gt;&lt;p style=&quot;margin:0px;margin-left:4px;&quot;&gt;&lt;br&gt;&lt;/p&gt;&lt;hr size=&quot;1&quot;&gt;&lt;p style=&quot;margin:0px;margin-left:4px;&quot;&gt;+ Traiter()&lt;/p&gt;&lt;p style=&quot;margin:0px;margin-left:4px;&quot;&gt;+ Fournir()&lt;/p&gt;" style="verticalAlign=top;align=left;overflow=fill;fontSize=12;fontFamily=Helvetica;html=1;whiteSpace=wrap;" parent="1" vertex="1">
          <mxGeometry x="2610" y="389" width="160" height="90" as="geometry" />
        </mxCell>
        <mxCell id="yRA-he5OFufWY-U0mKkY-64" value="" style="shape=flexArrow;endArrow=classic;startArrow=classic;html=1;rounded=0;width=1;startSize=0.6;startWidth=3.1578947368421053;entryX=0.75;entryY=1;entryDx=0;entryDy=0;" parent="1" edge="1">
          <mxGeometry width="100" height="100" relative="1" as="geometry">
            <mxPoint x="2661" y="388" as="sourcePoint" />
            <mxPoint x="2503" y="269" as="targetPoint" />
          </mxGeometry>
        </mxCell>
        <mxCell id="yRA-he5OFufWY-U0mKkY-65" value="" style="shape=flexArrow;endArrow=classic;startArrow=classic;html=1;rounded=0;width=1;startSize=0.38;startWidth=0;entryX=0.5;entryY=1;entryDx=0;entryDy=0;" parent="1" edge="1">
          <mxGeometry width="100" height="100" relative="1" as="geometry">
            <mxPoint x="2449" y="389" as="sourcePoint" />
            <mxPoint x="2470" y="269" as="targetPoint" />
          </mxGeometry>
        </mxCell>
        <mxCell id="yRA-he5OFufWY-U0mKkY-66" value="" style="shape=flexArrow;endArrow=classic;startArrow=classic;html=1;rounded=0;width=1;startSize=0.031578947368421054;startWidth=9.473684210526317;entryX=0;entryY=1;entryDx=0;entryDy=0;" parent="1" target="yRA-he5OFufWY-U0mKkY-67" edge="1">
          <mxGeometry width="100" height="100" relative="1" as="geometry">
            <mxPoint x="2220" y="407" as="sourcePoint" />
            <mxPoint x="2376" y="280" as="targetPoint" />
            <Array as="points">
              <mxPoint x="2320" y="367" />
            </Array>
          </mxGeometry>
        </mxCell>
        <mxCell id="yRA-he5OFufWY-U0mKkY-67" value="&lt;p style=&quot;margin:0px;margin-top:4px;text-align:center;&quot;&gt;&lt;b&gt;user&lt;/b&gt;&lt;/p&gt;&lt;hr size=&quot;1&quot;&gt;&lt;p style=&quot;margin:0px;margin-left:4px;&quot;&gt;- id_user; string&lt;/p&gt;&lt;p style=&quot;margin:0px;margin-left:4px;&quot;&gt;+nom: string&lt;/p&gt;&lt;p style=&quot;margin:0px;margin-left:4px;&quot;&gt;-email: string&lt;/p&gt;&lt;p style=&quot;margin:0px;margin-left:4px;&quot;&gt;-tel: string&lt;/p&gt;&lt;p style=&quot;margin:0px;margin-left:4px;&quot;&gt;+photo: string&lt;/p&gt;&lt;p style=&quot;margin:0px;margin-left:4px;&quot;&gt;&lt;br&gt;&lt;/p&gt;&lt;hr size=&quot;1&quot;&gt;&lt;p style=&quot;margin:0px;margin-left:4px;&quot;&gt;+s&#39;authentifier()&lt;/p&gt;" style="verticalAlign=top;align=left;overflow=fill;fontSize=12;fontFamily=Helvetica;html=1;whiteSpace=wrap;" parent="1" vertex="1">
          <mxGeometry x="2405" y="118.7" width="130.5" height="150" as="geometry" />
        </mxCell>
        <mxCell id="yRA-he5OFufWY-U0mKkY-68" value="&lt;p style=&quot;margin:0px;margin-top:4px;text-align:center;&quot;&gt;&lt;b&gt;Client&lt;/b&gt;&lt;/p&gt;&lt;hr size=&quot;1&quot;&gt;&lt;p style=&quot;margin:0px;margin-left:4px;&quot;&gt;-Check_in: DateTime&lt;/p&gt;&lt;p style=&quot;margin:0px;margin-left:4px;&quot;&gt;-Check_Out: DateTime&lt;/p&gt;&lt;p style=&quot;margin:0px;margin-left:4px;&quot;&gt;+Chambre: int&lt;/p&gt;&lt;p style=&quot;margin:0px;margin-left:4px;&quot;&gt;-Solde: float&lt;/p&gt;&lt;hr size=&quot;1&quot;&gt;&lt;p style=&quot;margin:0px;margin-left:4px;&quot;&gt;+ Commander()&lt;/p&gt;&lt;p style=&quot;margin:0px;margin-left:4px;&quot;&gt;+s&#39;inscrire()&lt;/p&gt;" style="verticalAlign=top;align=left;overflow=fill;fontSize=12;fontFamily=Helvetica;html=1;whiteSpace=wrap;" parent="1" vertex="1">
          <mxGeometry x="2110" y="410" width="160" height="140" as="geometry" />
        </mxCell>
        <mxCell id="yRA-he5OFufWY-U0mKkY-71" value="" style="endArrow=none;html=1;rounded=0;exitX=0.5;exitY=0;exitDx=0;exitDy=0;entryX=0.25;entryY=1;entryDx=0;entryDy=0;" parent="1" source="yRA-he5OFufWY-U0mKkY-73" target="yRA-he5OFufWY-U0mKkY-63" edge="1">
          <mxGeometry width="50" height="50" relative="1" as="geometry">
            <mxPoint x="2200" y="914" as="sourcePoint" />
            <mxPoint x="2433" y="530" as="targetPoint" />
          </mxGeometry>
        </mxCell>
        <mxCell id="yRA-he5OFufWY-U0mKkY-72" value="" style="endArrow=none;html=1;rounded=0;entryX=0.816;entryY=1.169;entryDx=0;entryDy=0;exitX=0.75;exitY=0;exitDx=0;exitDy=0;entryPerimeter=0;" parent="1" source="yRA-he5OFufWY-U0mKkY-58" target="yRA-he5OFufWY-U0mKkY-73" edge="1">
          <mxGeometry width="50" height="50" relative="1" as="geometry">
            <mxPoint x="2310" y="914" as="sourcePoint" />
            <mxPoint x="2433" y="530" as="targetPoint" />
          </mxGeometry>
        </mxCell>
        <mxCell id="yRA-he5OFufWY-U0mKkY-73" value="&lt;font style=&quot;font-size: 14px;&quot;&gt;Fournir&lt;/font&gt;" style="text;html=1;align=center;verticalAlign=middle;resizable=0;points=[];autosize=1;strokeColor=none;fillColor=none;" parent="1" vertex="1">
          <mxGeometry x="2524" y="687" width="70" height="30" as="geometry" />
        </mxCell>
        <mxCell id="yRA-he5OFufWY-U0mKkY-77" value="&lt;p style=&quot;margin:0px;margin-top:4px;text-align:center;&quot;&gt;&lt;b&gt;Categorie_produit&lt;/b&gt;&lt;/p&gt;&lt;hr size=&quot;1&quot;&gt;&lt;p style=&quot;margin:0px;margin-left:4px;&quot;&gt;-id_categorie : string&lt;/p&gt;&lt;p style=&quot;margin:0px;margin-left:4px;&quot;&gt;&lt;span style=&quot;background-color: initial;&quot;&gt;+nom: string&lt;/span&gt;&lt;/p&gt;&lt;hr size=&quot;1&quot;&gt;&lt;p style=&quot;margin:0px;margin-left:4px;&quot;&gt;+ Contenir()&lt;/p&gt;&lt;p style=&quot;margin:0px;margin-left:4px;&quot;&gt;+Compose()&lt;/p&gt;" style="verticalAlign=top;align=left;overflow=fill;fontSize=12;fontFamily=Helvetica;html=1;whiteSpace=wrap;" parent="1" vertex="1">
          <mxGeometry x="2860" y="845" width="160" height="120" as="geometry" />
        </mxCell>
        <mxCell id="yRA-he5OFufWY-U0mKkY-83" value="" style="line;strokeWidth=1;fillColor=none;align=left;verticalAlign=middle;spacingTop=-1;spacingLeft=3;spacingRight=3;rotatable=0;labelPosition=right;points=[];portConstraint=eastwest;strokeColor=inherit;" parent="1" vertex="1">
          <mxGeometry x="2610" y="904.5" width="250" height="8" as="geometry" />
        </mxCell>
        <mxCell id="yRA-he5OFufWY-U0mKkY-84" value="1" style="text;align=center;fontStyle=1;verticalAlign=middle;spacingLeft=3;spacingRight=3;strokeColor=none;rotatable=0;points=[[0,0.5],[1,0.5]];portConstraint=eastwest;html=1;" parent="1" vertex="1">
          <mxGeometry x="2610" y="878.5" width="30" height="26" as="geometry" />
        </mxCell>
        <mxCell id="yRA-he5OFufWY-U0mKkY-85" value="1..*" style="text;html=1;align=center;verticalAlign=middle;resizable=0;points=[];autosize=1;strokeColor=none;fillColor=none;" parent="1" vertex="1">
          <mxGeometry x="2820" y="877.5" width="40" height="30" as="geometry" />
        </mxCell>
        <mxCell id="yRA-he5OFufWY-U0mKkY-86" value="se compose de" style="text;html=1;align=center;verticalAlign=middle;resizable=0;points=[];autosize=1;strokeColor=none;fillColor=none;" parent="1" vertex="1">
          <mxGeometry x="2675" y="877.5" width="100" height="30" as="geometry" />
        </mxCell>
        <mxCell id="yRA-he5OFufWY-U0mKkY-87" value="1..*" style="text;html=1;align=center;verticalAlign=middle;resizable=0;points=[];autosize=1;strokeColor=none;fillColor=none;" parent="1" vertex="1">
          <mxGeometry x="3165" y="882.5" width="40" height="30" as="geometry" />
        </mxCell>
        <mxCell id="yRA-he5OFufWY-U0mKkY-88" value="1" style="text;html=1;align=center;verticalAlign=middle;resizable=0;points=[];autosize=1;strokeColor=none;fillColor=none;" parent="1" vertex="1">
          <mxGeometry x="3060" y="876.5" width="30" height="30" as="geometry" />
        </mxCell>
        <mxCell id="yRA-he5OFufWY-U0mKkY-89" value="Contenir" style="text;html=1;align=center;verticalAlign=middle;resizable=0;points=[];autosize=1;strokeColor=none;fillColor=none;" parent="1" vertex="1">
          <mxGeometry x="3105" y="876.5" width="70" height="30" as="geometry" />
        </mxCell>
        <mxCell id="yRA-he5OFufWY-U0mKkY-90" value="" style="endArrow=diamondThin;endFill=0;endSize=24;html=1;rounded=0;exitX=0.005;exitY=0.54;exitDx=0;exitDy=0;entryX=1.012;entryY=0.554;entryDx=0;entryDy=0;entryPerimeter=0;exitPerimeter=0;" parent="1" source="yRA-he5OFufWY-U0mKkY-92" target="yRA-he5OFufWY-U0mKkY-77" edge="1">
          <mxGeometry width="160" relative="1" as="geometry">
            <mxPoint x="3202" y="911.5" as="sourcePoint" />
            <mxPoint x="3070" y="913.5" as="targetPoint" />
          </mxGeometry>
        </mxCell>
        <mxCell id="yRA-he5OFufWY-U0mKkY-92" value="&lt;p style=&quot;margin:0px;margin-top:4px;text-align:center;&quot;&gt;&lt;b&gt;Produit&lt;/b&gt;&lt;/p&gt;&lt;hr size=&quot;1&quot;&gt;&lt;p style=&quot;margin:0px;margin-left:4px;&quot;&gt;-id_produit : string&lt;/p&gt;&lt;p style=&quot;margin:0px;margin-left:4px;&quot;&gt;&lt;span style=&quot;background-color: initial;&quot;&gt;+nom: string&lt;/span&gt;&lt;/p&gt;&lt;p style=&quot;margin:0px;margin-left:4px;&quot;&gt;+description: string&lt;/p&gt;&lt;p style=&quot;margin:0px;margin-left:4px;&quot;&gt;+prix: float&lt;/p&gt;&lt;p style=&quot;margin:0px;margin-left:4px;&quot;&gt;+statu: string&lt;/p&gt;&lt;p style=&quot;margin:0px;margin-left:4px;&quot;&gt;+photo: string&lt;/p&gt;&lt;hr size=&quot;1&quot;&gt;&lt;p style=&quot;margin:0px;margin-left:4px;&quot;&gt;&lt;br&gt;&lt;/p&gt;" style="verticalAlign=top;align=left;overflow=fill;fontSize=12;fontFamily=Helvetica;html=1;whiteSpace=wrap;" parent="1" vertex="1">
          <mxGeometry x="3205" y="835.5" width="160" height="146" as="geometry" />
        </mxCell>
        <mxCell id="yRA-he5OFufWY-U0mKkY-93" value="&lt;p style=&quot;margin:0px;margin-top:4px;text-align:center;&quot;&gt;&lt;b&gt;Commande_Produit&lt;/b&gt;&lt;/p&gt;&lt;hr size=&quot;1&quot;&gt;&lt;p style=&quot;margin:0px;margin-left:4px;&quot;&gt;&lt;span style=&quot;background-color: initial;&quot;&gt;+Quantity: Int&lt;/span&gt;&lt;/p&gt;&lt;hr size=&quot;1&quot;&gt;&lt;p style=&quot;margin:0px;margin-left:4px;&quot;&gt;&lt;br&gt;&lt;/p&gt;" style="verticalAlign=top;align=left;overflow=fill;fontSize=12;fontFamily=Helvetica;html=1;whiteSpace=wrap;" parent="1" vertex="1">
          <mxGeometry x="2860" y="1108" width="160" height="80" as="geometry" />
        </mxCell>
        <mxCell id="yRA-he5OFufWY-U0mKkY-94" value="&lt;p style=&quot;margin:0px;margin-top:4px;text-align:center;&quot;&gt;&lt;b&gt;Commande&lt;/b&gt;&lt;/p&gt;&lt;hr size=&quot;1&quot;&gt;&lt;p style=&quot;margin:0px;margin-left:4px;&quot;&gt;&lt;span style=&quot;background-color: initial;&quot;&gt;-id_commande: string&lt;/span&gt;&lt;/p&gt;&lt;p style=&quot;margin:0px;margin-left:4px;&quot;&gt;&lt;span style=&quot;background-color: initial;&quot;&gt;+prix: float&lt;/span&gt;&lt;/p&gt;&lt;p style=&quot;margin:0px;margin-left:4px;&quot;&gt;+date: DateTime&lt;/p&gt;&lt;p style=&quot;margin:0px;margin-left:4px;&quot;&gt;+Traitement: Time&lt;/p&gt;&lt;hr size=&quot;1&quot;&gt;&lt;p style=&quot;margin:0px;margin-left:4px;&quot;&gt;&lt;br&gt;&lt;/p&gt;" style="verticalAlign=top;align=left;overflow=fill;fontSize=12;fontFamily=Helvetica;html=1;whiteSpace=wrap;" parent="1" vertex="1">
          <mxGeometry x="2504" y="1116" width="160" height="134" as="geometry" />
        </mxCell>
        <mxCell id="yRA-he5OFufWY-U0mKkY-97" value="1" style="text;html=1;align=center;verticalAlign=middle;resizable=0;points=[];autosize=1;strokeColor=none;fillColor=none;" parent="1" vertex="1">
          <mxGeometry x="2360.25" y="449" width="30" height="30" as="geometry" />
        </mxCell>
        <mxCell id="yRA-he5OFufWY-U0mKkY-98" value="1..*" style="text;html=1;align=center;verticalAlign=middle;resizable=0;points=[];autosize=1;strokeColor=none;fillColor=none;" parent="1" vertex="1">
          <mxGeometry x="2270" y="455" width="40" height="30" as="geometry" />
        </mxCell>
        <mxCell id="yRA-he5OFufWY-U0mKkY-99" value="Autoriser" style="text;html=1;align=center;verticalAlign=middle;resizable=0;points=[];autosize=1;strokeColor=none;fillColor=none;" parent="1" vertex="1">
          <mxGeometry x="2290.25" y="486" width="70" height="30" as="geometry" />
        </mxCell>
        <mxCell id="yRA-he5OFufWY-U0mKkY-100" value="" style="endArrow=none;html=1;rounded=0;exitX=1;exitY=0.5;exitDx=0;exitDy=0;entryX=0.005;entryY=0.844;entryDx=0;entryDy=0;entryPerimeter=0;" parent="1" target="yRA-he5OFufWY-U0mKkY-41" edge="1">
          <mxGeometry width="50" height="50" relative="1" as="geometry">
            <mxPoint x="2270" y="481" as="sourcePoint" />
            <mxPoint x="2330" y="482" as="targetPoint" />
          </mxGeometry>
        </mxCell>
        <mxCell id="yRA-he5OFufWY-U0mKkY-102" value="" style="endArrow=none;html=1;rounded=0;exitX=1;exitY=0.5;exitDx=0;exitDy=0;entryX=0.01;entryY=0.615;entryDx=0;entryDy=0;entryPerimeter=0;" parent="1" source="yRA-he5OFufWY-U0mKkY-41" target="yRA-he5OFufWY-U0mKkY-63" edge="1">
          <mxGeometry width="50" height="50" relative="1" as="geometry">
            <mxPoint x="2303" y="584" as="sourcePoint" />
            <mxPoint x="2424" y="585" as="targetPoint" />
          </mxGeometry>
        </mxCell>
        <mxCell id="yRA-he5OFufWY-U0mKkY-103" value="Gérer" style="text;html=1;align=center;verticalAlign=middle;resizable=0;points=[];autosize=1;strokeColor=none;fillColor=none;" parent="1" vertex="1">
          <mxGeometry x="2550.25" y="445" width="50" height="30" as="geometry" />
        </mxCell>
        <mxCell id="yRA-he5OFufWY-U0mKkY-104" value="1" style="text;html=1;align=center;verticalAlign=middle;resizable=0;points=[];autosize=1;strokeColor=none;fillColor=none;" parent="1" vertex="1">
          <mxGeometry x="2544" y="419" width="30" height="30" as="geometry" />
        </mxCell>
        <mxCell id="yRA-he5OFufWY-U0mKkY-105" value="1..*" style="text;html=1;align=center;verticalAlign=middle;resizable=0;points=[];autosize=1;strokeColor=none;fillColor=none;" parent="1" vertex="1">
          <mxGeometry x="2575" y="419" width="40" height="30" as="geometry" />
        </mxCell>
        <mxCell id="yRA-he5OFufWY-U0mKkY-106" value="1" style="text;html=1;align=center;verticalAlign=middle;resizable=0;points=[];autosize=1;strokeColor=none;fillColor=none;" parent="1" vertex="1">
          <mxGeometry x="2190" y="555" width="30" height="30" as="geometry" />
        </mxCell>
        <mxCell id="yRA-he5OFufWY-U0mKkY-109" value="" style="endArrow=none;html=1;rounded=0;" parent="1" edge="1">
          <mxGeometry width="50" height="50" relative="1" as="geometry">
            <mxPoint x="3440" y="1250" as="sourcePoint" />
            <mxPoint x="3480" y="604" as="targetPoint" />
          </mxGeometry>
        </mxCell>
        <mxCell id="yRA-he5OFufWY-U0mKkY-111" value="" style="endArrow=none;html=1;rounded=0;exitX=1;exitY=0.5;exitDx=0;exitDy=0;" parent="1" edge="1">
          <mxGeometry width="50" height="50" relative="1" as="geometry">
            <mxPoint x="3165" y="534" as="sourcePoint" />
            <mxPoint x="3480" y="604" as="targetPoint" />
          </mxGeometry>
        </mxCell>
        <mxCell id="yRA-he5OFufWY-U0mKkY-112" value="" style="endArrow=none;html=1;rounded=0;exitX=1;exitY=0.75;exitDx=0;exitDy=0;" parent="1" source="yRA-he5OFufWY-U0mKkY-63" target="yRA-he5OFufWY-U0mKkY-113" edge="1">
          <mxGeometry width="50" height="50" relative="1" as="geometry">
            <mxPoint x="2820" y="475" as="sourcePoint" />
            <mxPoint x="3480" y="604" as="targetPoint" />
          </mxGeometry>
        </mxCell>
        <mxCell id="yRA-he5OFufWY-U0mKkY-113" value="&lt;font style=&quot;font-size: 18px;&quot;&gt;Traiter&lt;/font&gt;" style="text;html=1;align=center;verticalAlign=middle;resizable=0;points=[];autosize=1;strokeColor=none;fillColor=none;" parent="1" vertex="1">
          <mxGeometry x="3095" y="514" width="70" height="40" as="geometry" />
        </mxCell>
        <mxCell id="yRA-he5OFufWY-U0mKkY-115" value="1..*" style="text;html=1;align=center;verticalAlign=middle;resizable=0;points=[];autosize=1;strokeColor=none;fillColor=none;" parent="1" vertex="1">
          <mxGeometry x="2664" y="1210" width="40" height="30" as="geometry" />
        </mxCell>
        <mxCell id="yRA-he5OFufWY-U0mKkY-116" value="1" style="text;html=1;align=center;verticalAlign=middle;resizable=0;points=[];autosize=1;strokeColor=none;fillColor=none;" parent="1" vertex="1">
          <mxGeometry x="2765" y="435" width="30" height="30" as="geometry" />
        </mxCell>
        <mxCell id="yRA-he5OFufWY-U0mKkY-117" value="" style="endArrow=none;html=1;rounded=0;exitX=0;exitY=1.033;exitDx=0;exitDy=0;exitPerimeter=0;" parent="1" source="yRA-he5OFufWY-U0mKkY-115" edge="1">
          <mxGeometry width="50" height="50" relative="1" as="geometry">
            <mxPoint x="3022" y="1162" as="sourcePoint" />
            <mxPoint x="3440" y="1250" as="targetPoint" />
          </mxGeometry>
        </mxCell>
      </root>
    </mxGraphModel>
  </diagram>
  <diagram id="yM-Dep-GhWsUUQyzGKcz" name="Use Case">
    <mxGraphModel dx="1518" dy="655" grid="1" gridSize="10" guides="1" tooltips="1" connect="1" arrows="1" fold="1" page="1" pageScale="1" pageWidth="827" pageHeight="1169" math="0" shadow="0">
      <root>
        <mxCell id="0" />
        <mxCell id="1" parent="0" />
        <mxCell id="161mXI8yLU9irmFRyv6j-196" value="Admin" style="shape=umlActor;verticalLabelPosition=bottom;verticalAlign=top;html=1;outlineConnect=0;fontSize=12;movable=1;resizable=1;rotatable=1;deletable=1;editable=1;locked=0;connectable=1;" vertex="1" parent="1">
          <mxGeometry x="280" y="990.0038532110091" width="30" height="62.38532110091743" as="geometry" />
        </mxCell>
        <mxCell id="161mXI8yLU9irmFRyv6j-246" value="" style="rounded=0;whiteSpace=wrap;html=1;" vertex="1" parent="1">
          <mxGeometry x="360" y="99" width="920" height="1310" as="geometry" />
        </mxCell>
        <mxCell id="161mXI8yLU9irmFRyv6j-247" style="edgeStyle=none;rounded=0;orthogonalLoop=1;jettySize=auto;html=1;exitX=1;exitY=0.3333333333333333;exitDx=0;exitDy=0;exitPerimeter=0;" edge="1" parent="1" source="161mXI8yLU9irmFRyv6j-250">
          <mxGeometry relative="1" as="geometry">
            <mxPoint x="700" y="255" as="targetPoint" />
          </mxGeometry>
        </mxCell>
        <mxCell id="161mXI8yLU9irmFRyv6j-248" style="edgeStyle=none;rounded=0;orthogonalLoop=1;jettySize=auto;html=1;exitX=1;exitY=0.3333333333333333;exitDx=0;exitDy=0;exitPerimeter=0;entryX=0;entryY=0.5;entryDx=0;entryDy=0;" edge="1" parent="1" source="161mXI8yLU9irmFRyv6j-250" target="161mXI8yLU9irmFRyv6j-264">
          <mxGeometry relative="1" as="geometry" />
        </mxCell>
        <mxCell id="161mXI8yLU9irmFRyv6j-249" style="edgeStyle=none;rounded=0;orthogonalLoop=1;jettySize=auto;html=1;exitX=1;exitY=0.3333333333333333;exitDx=0;exitDy=0;exitPerimeter=0;entryX=0;entryY=0.5;entryDx=0;entryDy=0;" edge="1" parent="1" source="161mXI8yLU9irmFRyv6j-250" target="161mXI8yLU9irmFRyv6j-274">
          <mxGeometry relative="1" as="geometry" />
        </mxCell>
        <mxCell id="161mXI8yLU9irmFRyv6j-250" value="Client" style="shape=umlActor;verticalLabelPosition=bottom;verticalAlign=top;html=1;outlineConnect=0;labelBorderColor=none;" vertex="1" parent="1">
          <mxGeometry x="310" y="282.7804281345566" width="30" height="62.38532110091743" as="geometry" />
        </mxCell>
        <mxCell id="161mXI8yLU9irmFRyv6j-251" style="edgeStyle=none;rounded=0;orthogonalLoop=1;jettySize=auto;html=1;exitX=1;exitY=0.3333333333333333;exitDx=0;exitDy=0;exitPerimeter=0;entryX=0;entryY=0.5;entryDx=0;entryDy=0;" edge="1" parent="1" source="161mXI8yLU9irmFRyv6j-253" target="161mXI8yLU9irmFRyv6j-294">
          <mxGeometry relative="1" as="geometry" />
        </mxCell>
        <mxCell id="161mXI8yLU9irmFRyv6j-252" style="edgeStyle=none;rounded=0;orthogonalLoop=1;jettySize=auto;html=1;exitX=1;exitY=0.3333333333333333;exitDx=0;exitDy=0;exitPerimeter=0;entryX=0;entryY=0.5;entryDx=0;entryDy=0;" edge="1" parent="1" source="161mXI8yLU9irmFRyv6j-253" target="161mXI8yLU9irmFRyv6j-301">
          <mxGeometry relative="1" as="geometry" />
        </mxCell>
        <mxCell id="161mXI8yLU9irmFRyv6j-253" value="Responsable Service" style="shape=umlActor;verticalLabelPosition=bottom;verticalAlign=top;html=1;outlineConnect=0;" vertex="1" parent="1">
          <mxGeometry x="260" y="682.7519877675841" width="30" height="62.38532110091743" as="geometry" />
        </mxCell>
        <mxCell id="161mXI8yLU9irmFRyv6j-254" value="" style="group;movable=1;resizable=1;rotatable=1;deletable=1;editable=1;locked=0;connectable=1;" vertex="1" connectable="0" parent="1">
          <mxGeometry x="1040" y="386.7584097859326" width="120" height="83.18042813455658" as="geometry" />
        </mxCell>
        <mxCell id="161mXI8yLU9irmFRyv6j-255" value="" style="ellipse;whiteSpace=wrap;html=1;" vertex="1" parent="161mXI8yLU9irmFRyv6j-254">
          <mxGeometry width="120" height="83.18042813455658" as="geometry" />
        </mxCell>
        <mxCell id="161mXI8yLU9irmFRyv6j-256" value="S&#39;authentifier" style="text;html=1;strokeColor=none;fillColor=none;align=center;verticalAlign=middle;whiteSpace=wrap;rounded=0;" vertex="1" parent="161mXI8yLU9irmFRyv6j-254">
          <mxGeometry x="30" y="25.993883792048933" width="60" height="31.192660550458715" as="geometry" />
        </mxCell>
        <mxCell id="161mXI8yLU9irmFRyv6j-257" value="" style="group" vertex="1" connectable="0" parent="1">
          <mxGeometry x="700" y="220.39755351681958" width="120" height="62.38532110091743" as="geometry" />
        </mxCell>
        <mxCell id="161mXI8yLU9irmFRyv6j-258" value="" style="group" vertex="1" connectable="0" parent="161mXI8yLU9irmFRyv6j-257">
          <mxGeometry width="120" height="62.38532110091743" as="geometry" />
        </mxCell>
        <mxCell id="161mXI8yLU9irmFRyv6j-259" value="" style="ellipse;whiteSpace=wrap;html=1;" vertex="1" parent="161mXI8yLU9irmFRyv6j-258">
          <mxGeometry width="120" height="62.38532110091743" as="geometry" />
        </mxCell>
        <mxCell id="161mXI8yLU9irmFRyv6j-260" value="Consulter historique" style="text;html=1;strokeColor=none;fillColor=none;align=center;verticalAlign=middle;whiteSpace=wrap;rounded=0;" vertex="1" parent="161mXI8yLU9irmFRyv6j-258">
          <mxGeometry x="30" y="15.596330275229358" width="60" height="23.394495412844037" as="geometry" />
        </mxCell>
        <mxCell id="161mXI8yLU9irmFRyv6j-261" value="" style="group" vertex="1" connectable="0" parent="1">
          <mxGeometry x="420" y="449.1404281345565" width="120" height="62.38532110091743" as="geometry" />
        </mxCell>
        <mxCell id="161mXI8yLU9irmFRyv6j-262" style="edgeStyle=orthogonalEdgeStyle;rounded=0;orthogonalLoop=1;jettySize=auto;html=1;exitX=1;exitY=0.3333333333333333;exitDx=0;exitDy=0;exitPerimeter=0;entryX=0;entryY=0.5;entryDx=0;entryDy=0;" edge="1" parent="161mXI8yLU9irmFRyv6j-261">
          <mxGeometry relative="1" as="geometry">
            <mxPoint y="41.59021406727816" as="targetPoint" />
          </mxGeometry>
        </mxCell>
        <mxCell id="161mXI8yLU9irmFRyv6j-263" value="" style="group" vertex="1" connectable="0" parent="161mXI8yLU9irmFRyv6j-261">
          <mxGeometry width="120" height="62.38532110091743" as="geometry" />
        </mxCell>
        <mxCell id="161mXI8yLU9irmFRyv6j-264" value="" style="ellipse;whiteSpace=wrap;html=1;" vertex="1" parent="161mXI8yLU9irmFRyv6j-263">
          <mxGeometry width="120" height="62.38532110091743" as="geometry" />
        </mxCell>
        <mxCell id="161mXI8yLU9irmFRyv6j-265" value="Passer commande&amp;nbsp;" style="text;html=1;strokeColor=none;fillColor=none;align=center;verticalAlign=middle;whiteSpace=wrap;rounded=0;" vertex="1" parent="161mXI8yLU9irmFRyv6j-263">
          <mxGeometry x="30" y="15.596330275229358" width="60" height="23.394495412844037" as="geometry" />
        </mxCell>
        <mxCell id="161mXI8yLU9irmFRyv6j-266" value="" style="group" vertex="1" connectable="0" parent="1">
          <mxGeometry x="700" y="305.0033027522936" width="120" height="62.38532110091743" as="geometry" />
        </mxCell>
        <mxCell id="161mXI8yLU9irmFRyv6j-267" style="edgeStyle=orthogonalEdgeStyle;rounded=0;orthogonalLoop=1;jettySize=auto;html=1;exitX=1;exitY=0.3333333333333333;exitDx=0;exitDy=0;exitPerimeter=0;entryX=0;entryY=0.5;entryDx=0;entryDy=0;" edge="1" parent="161mXI8yLU9irmFRyv6j-266">
          <mxGeometry relative="1" as="geometry">
            <mxPoint y="41.59021406727816" as="targetPoint" />
          </mxGeometry>
        </mxCell>
        <mxCell id="161mXI8yLU9irmFRyv6j-268" value="" style="group" vertex="1" connectable="0" parent="161mXI8yLU9irmFRyv6j-266">
          <mxGeometry width="120" height="62.38532110091743" as="geometry" />
        </mxCell>
        <mxCell id="161mXI8yLU9irmFRyv6j-269" value="" style="ellipse;whiteSpace=wrap;html=1;" vertex="1" parent="161mXI8yLU9irmFRyv6j-268">
          <mxGeometry width="120" height="62.38532110091743" as="geometry" />
        </mxCell>
        <mxCell id="161mXI8yLU9irmFRyv6j-270" value="s&#39;inscrire" style="text;html=1;strokeColor=none;fillColor=none;align=center;verticalAlign=middle;whiteSpace=wrap;rounded=0;" vertex="1" parent="161mXI8yLU9irmFRyv6j-268">
          <mxGeometry x="30" y="15.596330275229358" width="60" height="23.394495412844037" as="geometry" />
        </mxCell>
        <mxCell id="161mXI8yLU9irmFRyv6j-271" value="" style="group" vertex="1" connectable="0" parent="1">
          <mxGeometry x="700" y="404.99617737003064" width="120" height="62.38532110091743" as="geometry" />
        </mxCell>
        <mxCell id="161mXI8yLU9irmFRyv6j-272" style="edgeStyle=orthogonalEdgeStyle;rounded=0;orthogonalLoop=1;jettySize=auto;html=1;exitX=1;exitY=0.3333333333333333;exitDx=0;exitDy=0;exitPerimeter=0;entryX=0;entryY=0.5;entryDx=0;entryDy=0;" edge="1" parent="161mXI8yLU9irmFRyv6j-271">
          <mxGeometry relative="1" as="geometry">
            <mxPoint y="41.59021406727816" as="targetPoint" />
          </mxGeometry>
        </mxCell>
        <mxCell id="161mXI8yLU9irmFRyv6j-273" value="" style="group" vertex="1" connectable="0" parent="161mXI8yLU9irmFRyv6j-271">
          <mxGeometry width="120" height="62.38532110091743" as="geometry" />
        </mxCell>
        <mxCell id="161mXI8yLU9irmFRyv6j-274" value="" style="ellipse;whiteSpace=wrap;html=1;" vertex="1" parent="161mXI8yLU9irmFRyv6j-273">
          <mxGeometry width="120" height="62.38532110091743" as="geometry" />
        </mxCell>
        <mxCell id="161mXI8yLU9irmFRyv6j-275" value="Consulter solde" style="text;html=1;strokeColor=none;fillColor=none;align=center;verticalAlign=middle;whiteSpace=wrap;rounded=0;" vertex="1" parent="161mXI8yLU9irmFRyv6j-273">
          <mxGeometry x="30" y="15.596330275229358" width="60" height="23.394495412844037" as="geometry" />
        </mxCell>
        <mxCell id="161mXI8yLU9irmFRyv6j-276" value="" style="group" vertex="1" connectable="0" parent="1">
          <mxGeometry x="590" y="474.99905198776764" width="120" height="62.38532110091743" as="geometry" />
        </mxCell>
        <mxCell id="161mXI8yLU9irmFRyv6j-277" style="edgeStyle=orthogonalEdgeStyle;rounded=0;orthogonalLoop=1;jettySize=auto;html=1;exitX=1;exitY=0.3333333333333333;exitDx=0;exitDy=0;exitPerimeter=0;entryX=0;entryY=0.5;entryDx=0;entryDy=0;" edge="1" parent="161mXI8yLU9irmFRyv6j-276">
          <mxGeometry relative="1" as="geometry">
            <mxPoint y="41.59021406727816" as="targetPoint" />
          </mxGeometry>
        </mxCell>
        <mxCell id="161mXI8yLU9irmFRyv6j-278" value="" style="group" vertex="1" connectable="0" parent="161mXI8yLU9irmFRyv6j-276">
          <mxGeometry width="120" height="62.38532110091743" as="geometry" />
        </mxCell>
        <mxCell id="161mXI8yLU9irmFRyv6j-279" value="" style="ellipse;whiteSpace=wrap;html=1;" vertex="1" parent="161mXI8yLU9irmFRyv6j-278">
          <mxGeometry width="120" height="62.38532110091743" as="geometry" />
        </mxCell>
        <mxCell id="161mXI8yLU9irmFRyv6j-280" value="Consulter les produits des services en extra&amp;nbsp;" style="text;html=1;strokeColor=none;fillColor=none;align=center;verticalAlign=middle;whiteSpace=wrap;rounded=0;" vertex="1" parent="161mXI8yLU9irmFRyv6j-278">
          <mxGeometry x="25" y="19.496330275229358" width="70" height="23.394495412844037" as="geometry" />
        </mxCell>
        <mxCell id="161mXI8yLU9irmFRyv6j-281" style="edgeStyle=orthogonalEdgeStyle;rounded=0;orthogonalLoop=1;jettySize=auto;html=1;exitX=1;exitY=0.5;exitDx=0;exitDy=0;dashed=1;fontSize=12;endArrow=none;endFill=0;" edge="1" parent="1" source="161mXI8yLU9irmFRyv6j-294">
          <mxGeometry relative="1" as="geometry">
            <mxPoint x="1100" y="637.4994119030816" as="targetPoint" />
          </mxGeometry>
        </mxCell>
        <mxCell id="161mXI8yLU9irmFRyv6j-282" style="edgeStyle=orthogonalEdgeStyle;rounded=0;orthogonalLoop=1;jettySize=auto;html=1;exitX=1;exitY=0.5;exitDx=0;exitDy=0;dashed=1;fontSize=12;endArrow=none;endFill=0;" edge="1" parent="1" source="161mXI8yLU9irmFRyv6j-297">
          <mxGeometry relative="1" as="geometry">
            <mxPoint x="1100" y="709.4824747118323" as="targetPoint" />
            <Array as="points">
              <mxPoint x="839" y="714" />
              <mxPoint x="1100" y="715" />
            </Array>
          </mxGeometry>
        </mxCell>
        <mxCell id="161mXI8yLU9irmFRyv6j-283" style="edgeStyle=orthogonalEdgeStyle;rounded=0;orthogonalLoop=1;jettySize=auto;html=1;exitX=1;exitY=0.5;exitDx=0;exitDy=0;dashed=1;fontSize=12;endArrow=none;endFill=0;" edge="1" parent="1" source="161mXI8yLU9irmFRyv6j-301">
          <mxGeometry relative="1" as="geometry">
            <mxPoint x="1100" y="792.662902846389" as="targetPoint" />
          </mxGeometry>
        </mxCell>
        <mxCell id="161mXI8yLU9irmFRyv6j-284" style="edgeStyle=orthogonalEdgeStyle;rounded=0;orthogonalLoop=1;jettySize=auto;html=1;exitX=1;exitY=0.5;exitDx=0;exitDy=0;entryX=0.5;entryY=1;entryDx=0;entryDy=0;fontSize=12;dashed=1;endArrow=open;endFill=0;" edge="1" parent="1" source="161mXI8yLU9irmFRyv6j-310" target="161mXI8yLU9irmFRyv6j-255">
          <mxGeometry relative="1" as="geometry" />
        </mxCell>
        <mxCell id="161mXI8yLU9irmFRyv6j-285" style="edgeStyle=orthogonalEdgeStyle;rounded=0;orthogonalLoop=1;jettySize=auto;html=1;exitX=1;exitY=0.5;exitDx=0;exitDy=0;entryX=0;entryY=1;entryDx=0;entryDy=0;dashed=1;fontSize=12;endArrow=open;endFill=0;" edge="1" parent="1" source="161mXI8yLU9irmFRyv6j-274" target="161mXI8yLU9irmFRyv6j-255">
          <mxGeometry relative="1" as="geometry">
            <Array as="points">
              <mxPoint x="820" y="435" />
              <mxPoint x="860" y="435" />
              <mxPoint x="860" y="465" />
              <mxPoint x="1057" y="465" />
            </Array>
          </mxGeometry>
        </mxCell>
        <mxCell id="161mXI8yLU9irmFRyv6j-286" style="edgeStyle=orthogonalEdgeStyle;rounded=0;orthogonalLoop=1;jettySize=auto;html=1;exitX=1;exitY=0.5;exitDx=0;exitDy=0;entryX=0.5;entryY=0;entryDx=0;entryDy=0;dashed=1;fontSize=12;endArrow=open;endFill=0;" edge="1" parent="1" source="161mXI8yLU9irmFRyv6j-259" target="161mXI8yLU9irmFRyv6j-255">
          <mxGeometry relative="1" as="geometry" />
        </mxCell>
        <mxCell id="161mXI8yLU9irmFRyv6j-287" value="&amp;lt;&amp;lt;&lt;font style=&quot;font-size: 17px;&quot;&gt;include&lt;/font&gt;&amp;gt;&amp;gt;" style="text;html=1;strokeColor=none;fillColor=none;align=center;verticalAlign=middle;whiteSpace=wrap;rounded=0;fontSize=12;" vertex="1" parent="1">
          <mxGeometry x="980" y="220.39755351681958" width="60" height="31.192660550458715" as="geometry" />
        </mxCell>
        <mxCell id="161mXI8yLU9irmFRyv6j-288" value="&amp;lt;&amp;lt;&lt;font style=&quot;font-size: 17px;&quot;&gt;include&lt;/font&gt;&amp;gt;&amp;gt;" style="text;html=1;strokeColor=none;fillColor=none;align=center;verticalAlign=middle;whiteSpace=wrap;rounded=0;fontSize=12;" vertex="1" parent="1">
          <mxGeometry x="990" y="494.99905198776764" width="60" height="31.192660550458715" as="geometry" />
        </mxCell>
        <mxCell id="161mXI8yLU9irmFRyv6j-289" value="&amp;lt;&amp;lt;&lt;font style=&quot;font-size: 17px;&quot;&gt;include&lt;/font&gt;&amp;gt;&amp;gt;" style="text;html=1;strokeColor=none;fillColor=none;align=center;verticalAlign=middle;whiteSpace=wrap;rounded=0;fontSize=12;" vertex="1" parent="1">
          <mxGeometry x="1000" y="606.6666666666667" width="60" height="31.192660550458715" as="geometry" />
        </mxCell>
        <mxCell id="161mXI8yLU9irmFRyv6j-290" value="&amp;lt;&amp;lt;&lt;font style=&quot;font-size: 17px;&quot;&gt;include&lt;/font&gt;&amp;gt;&amp;gt;" style="text;html=1;strokeColor=none;fillColor=none;align=center;verticalAlign=middle;whiteSpace=wrap;rounded=0;fontSize=12;" vertex="1" parent="1">
          <mxGeometry x="1000" y="677.8899082568807" width="60" height="31.192660550458715" as="geometry" />
        </mxCell>
        <mxCell id="161mXI8yLU9irmFRyv6j-291" value="&amp;lt;&amp;lt;&lt;font style=&quot;font-size: 17px;&quot;&gt;include&lt;/font&gt;&amp;gt;&amp;gt;" style="text;html=1;strokeColor=none;fillColor=none;align=center;verticalAlign=middle;whiteSpace=wrap;rounded=0;fontSize=12;" vertex="1" parent="1">
          <mxGeometry x="1000" y="761.0703363914372" width="60" height="31.192660550458715" as="geometry" />
        </mxCell>
        <mxCell id="161mXI8yLU9irmFRyv6j-292" value="&amp;lt;&amp;lt;&lt;font style=&quot;font-size: 17px;&quot;&gt;include&lt;/font&gt;&amp;gt;&amp;gt;" style="text;html=1;strokeColor=none;fillColor=none;align=center;verticalAlign=middle;whiteSpace=wrap;rounded=0;fontSize=12;" vertex="1" parent="1">
          <mxGeometry x="1000" y="899.9962996941895" width="60" height="31.192660550458715" as="geometry" />
        </mxCell>
        <mxCell id="161mXI8yLU9irmFRyv6j-293" value="" style="group" vertex="1" connectable="0" parent="1">
          <mxGeometry x="700" y="606.6666666666667" width="120" height="62.38532110091743" as="geometry" />
        </mxCell>
        <mxCell id="161mXI8yLU9irmFRyv6j-294" value="" style="ellipse;whiteSpace=wrap;html=1;" vertex="1" parent="161mXI8yLU9irmFRyv6j-293">
          <mxGeometry width="120" height="62.38532110091743" as="geometry" />
        </mxCell>
        <mxCell id="161mXI8yLU9irmFRyv6j-295" value="&lt;font style=&quot;font-size: 11px;&quot;&gt;Recevoir les notification de la commande&lt;/font&gt;" style="text;html=1;strokeColor=none;fillColor=none;align=center;verticalAlign=middle;whiteSpace=wrap;rounded=0;fontSize=17;" vertex="1" parent="161mXI8yLU9irmFRyv6j-293">
          <mxGeometry x="20" y="15.596330275229358" width="80" height="31.192660550458715" as="geometry" />
        </mxCell>
        <mxCell id="161mXI8yLU9irmFRyv6j-296" value="" style="group" vertex="1" connectable="0" parent="1">
          <mxGeometry x="700" y="677.8899999999999" width="130" height="72.11" as="geometry" />
        </mxCell>
        <mxCell id="161mXI8yLU9irmFRyv6j-297" value="" style="ellipse;whiteSpace=wrap;html=1;" vertex="1" parent="161mXI8yLU9irmFRyv6j-296">
          <mxGeometry width="120" height="72.11" as="geometry" />
        </mxCell>
        <mxCell id="161mXI8yLU9irmFRyv6j-298" value="&lt;font style=&quot;font-size: 11px;&quot;&gt;Gérer les commandes&amp;nbsp;&lt;/font&gt;" style="text;html=1;strokeColor=none;fillColor=none;align=center;verticalAlign=middle;whiteSpace=wrap;rounded=0;fontSize=17;" vertex="1" parent="161mXI8yLU9irmFRyv6j-296">
          <mxGeometry x="9.999333333333333" y="18.0275" width="100" height="36.055" as="geometry" />
        </mxCell>
        <mxCell id="161mXI8yLU9irmFRyv6j-299" style="edgeStyle=orthogonalEdgeStyle;rounded=0;orthogonalLoop=1;jettySize=auto;html=1;exitX=1;exitY=0.3333333333333333;exitDx=0;exitDy=0;exitPerimeter=0;fontSize=12;" edge="1" parent="1" source="161mXI8yLU9irmFRyv6j-253" target="161mXI8yLU9irmFRyv6j-297">
          <mxGeometry relative="1" as="geometry">
            <Array as="points">
              <mxPoint x="500" y="704" />
              <mxPoint x="500" y="704" />
            </Array>
          </mxGeometry>
        </mxCell>
        <mxCell id="161mXI8yLU9irmFRyv6j-300" value="" style="group" vertex="1" connectable="0" parent="1">
          <mxGeometry x="700" y="761.0703363914372" width="120" height="62.38532110091743" as="geometry" />
        </mxCell>
        <mxCell id="161mXI8yLU9irmFRyv6j-301" value="" style="ellipse;whiteSpace=wrap;html=1;" vertex="1" parent="161mXI8yLU9irmFRyv6j-300">
          <mxGeometry width="120" height="62.38532110091743" as="geometry" />
        </mxCell>
        <mxCell id="161mXI8yLU9irmFRyv6j-302" value="&lt;font style=&quot;font-size: 11px;&quot;&gt;Gérer les produit de son propre services&lt;/font&gt;" style="text;html=1;strokeColor=none;fillColor=none;align=center;verticalAlign=middle;whiteSpace=wrap;rounded=0;fontSize=17;" vertex="1" parent="161mXI8yLU9irmFRyv6j-300">
          <mxGeometry x="15" y="15.6" width="90" height="31.19" as="geometry" />
        </mxCell>
        <mxCell id="161mXI8yLU9irmFRyv6j-303" style="rounded=0;orthogonalLoop=1;jettySize=auto;html=1;exitX=1;exitY=0.3333333333333333;exitDx=0;exitDy=0;exitPerimeter=0;fontSize=12;" edge="1" parent="1" target="161mXI8yLU9irmFRyv6j-305">
          <mxGeometry relative="1" as="geometry">
            <mxPoint x="310" y="1030" as="sourcePoint" />
          </mxGeometry>
        </mxCell>
        <mxCell id="161mXI8yLU9irmFRyv6j-304" value="" style="group" vertex="1" connectable="0" parent="1">
          <mxGeometry x="690" y="899.9962996941895" width="120" height="62.385321100917395" as="geometry" />
        </mxCell>
        <mxCell id="161mXI8yLU9irmFRyv6j-305" value="Gérer les comptes&lt;br&gt;clients" style="ellipse;whiteSpace=wrap;html=1;" vertex="1" parent="161mXI8yLU9irmFRyv6j-304">
          <mxGeometry width="120" height="62.38532110091743" as="geometry" />
        </mxCell>
        <mxCell id="161mXI8yLU9irmFRyv6j-306" style="edgeStyle=none;rounded=0;orthogonalLoop=1;jettySize=auto;html=1;exitX=1;exitY=0.5;exitDx=0;exitDy=0;dashed=1;endArrow=none;endFill=0;" edge="1" parent="161mXI8yLU9irmFRyv6j-304">
          <mxGeometry relative="1" as="geometry">
            <mxPoint x="410" y="31.003700305810412" as="targetPoint" />
            <mxPoint x="120" y="31.19266055045864" as="sourcePoint" />
          </mxGeometry>
        </mxCell>
        <mxCell id="161mXI8yLU9irmFRyv6j-307" style="rounded=0;orthogonalLoop=1;jettySize=auto;html=1;exitX=1;exitY=0.3333333333333333;exitDx=0;exitDy=0;exitPerimeter=0;entryX=0;entryY=0.5;entryDx=0;entryDy=0;" edge="1" parent="1" target="161mXI8yLU9irmFRyv6j-310">
          <mxGeometry relative="1" as="geometry">
            <mxPoint x="310" y="1030" as="sourcePoint" />
          </mxGeometry>
        </mxCell>
        <mxCell id="161mXI8yLU9irmFRyv6j-308" value="&amp;lt;&amp;lt;&lt;font style=&quot;font-size: 17px;&quot;&gt;include&lt;/font&gt;&amp;gt;&amp;gt;" style="text;html=1;strokeColor=none;fillColor=none;align=center;verticalAlign=middle;whiteSpace=wrap;rounded=0;fontSize=12;" vertex="1" parent="1">
          <mxGeometry x="1000" y="968.8062996941894" width="60" height="31.192660550458715" as="geometry" />
        </mxCell>
        <mxCell id="161mXI8yLU9irmFRyv6j-309" value="" style="group" vertex="1" connectable="0" parent="1">
          <mxGeometry x="690" y="1052.3862996941893" width="120" height="62.385321100917395" as="geometry" />
        </mxCell>
        <mxCell id="161mXI8yLU9irmFRyv6j-310" value="" style="ellipse;whiteSpace=wrap;html=1;" vertex="1" parent="161mXI8yLU9irmFRyv6j-309">
          <mxGeometry width="120" height="62.38532110091743" as="geometry" />
        </mxCell>
        <mxCell id="161mXI8yLU9irmFRyv6j-311" value="&lt;font style=&quot;font-size: 11px;&quot;&gt;Gérer les services&lt;/font&gt;" style="text;html=1;strokeColor=none;fillColor=none;align=center;verticalAlign=middle;whiteSpace=wrap;rounded=0;fontSize=17;" vertex="1" parent="161mXI8yLU9irmFRyv6j-309">
          <mxGeometry x="30" y="15.59633027522932" width="60" height="31.192660550458715" as="geometry" />
        </mxCell>
        <mxCell id="161mXI8yLU9irmFRyv6j-312" style="rounded=0;orthogonalLoop=1;jettySize=auto;html=1;exitX=1;exitY=0.3333333333333333;exitDx=0;exitDy=0;exitPerimeter=0;fontSize=12;" edge="1" parent="1" target="161mXI8yLU9irmFRyv6j-314">
          <mxGeometry relative="1" as="geometry">
            <mxPoint x="310" y="1030" as="sourcePoint" />
          </mxGeometry>
        </mxCell>
        <mxCell id="161mXI8yLU9irmFRyv6j-313" value="" style="group" vertex="1" connectable="0" parent="1">
          <mxGeometry x="690" y="974.4062996941893" width="120" height="62.385321100917395" as="geometry" />
        </mxCell>
        <mxCell id="161mXI8yLU9irmFRyv6j-314" value="Gérer les comptes responsable service" style="ellipse;whiteSpace=wrap;html=1;" vertex="1" parent="161mXI8yLU9irmFRyv6j-313">
          <mxGeometry width="120" height="62.38532110091743" as="geometry" />
        </mxCell>
        <mxCell id="161mXI8yLU9irmFRyv6j-315" style="edgeStyle=none;rounded=0;orthogonalLoop=1;jettySize=auto;html=1;exitX=1;exitY=0.5;exitDx=0;exitDy=0;dashed=1;endArrow=none;endFill=0;" edge="1" parent="161mXI8yLU9irmFRyv6j-313">
          <mxGeometry relative="1" as="geometry">
            <mxPoint x="410" y="31.003700305810412" as="targetPoint" />
            <mxPoint x="120" y="31.192660550458754" as="sourcePoint" />
          </mxGeometry>
        </mxCell>
        <mxCell id="161mXI8yLU9irmFRyv6j-316" value="&amp;lt;&amp;lt;&lt;font style=&quot;font-size: 17px;&quot;&gt;include&lt;/font&gt;&amp;gt;&amp;gt;" style="text;html=1;strokeColor=none;fillColor=none;align=center;verticalAlign=middle;whiteSpace=wrap;rounded=0;fontSize=12;" vertex="1" parent="1">
          <mxGeometry x="1000" y="1039.9962996941895" width="60" height="31.192660550458715" as="geometry" />
        </mxCell>
        <mxCell id="161mXI8yLU9irmFRyv6j-317" style="edgeStyle=orthogonalEdgeStyle;rounded=0;orthogonalLoop=1;jettySize=auto;html=1;exitX=0;exitY=0.5;exitDx=0;exitDy=0;entryX=1;entryY=0.5;entryDx=0;entryDy=0;dashed=1;fontSize=12;endArrow=open;endFill=0;" edge="1" parent="1" source="161mXI8yLU9irmFRyv6j-254" target="161mXI8yLU9irmFRyv6j-269">
          <mxGeometry relative="1" as="geometry">
            <mxPoint x="1130" y="245" as="sourcePoint" />
            <mxPoint x="1367" y="320" as="targetPoint" />
            <Array as="points">
              <mxPoint x="1040" y="415" />
              <mxPoint x="930" y="415" />
              <mxPoint x="930" y="397" />
            </Array>
          </mxGeometry>
        </mxCell>
        <mxCell id="161mXI8yLU9irmFRyv6j-318" value="&amp;lt;&amp;lt;&lt;font style=&quot;font-size: 17px;&quot;&gt;include&lt;/font&gt;&amp;gt;&amp;gt;" style="text;html=1;strokeColor=none;fillColor=none;align=center;verticalAlign=middle;whiteSpace=wrap;rounded=0;fontSize=12;" vertex="1" parent="1">
          <mxGeometry x="960" y="386.758623853211" width="60" height="31.192660550458715" as="geometry" />
        </mxCell>
        <mxCell id="161mXI8yLU9irmFRyv6j-319" value="" style="group" vertex="1" connectable="0" parent="1">
          <mxGeometry x="820" y="485.0004281345564" width="120" height="62.38532110091743" as="geometry" />
        </mxCell>
        <mxCell id="161mXI8yLU9irmFRyv6j-320" style="edgeStyle=orthogonalEdgeStyle;rounded=0;orthogonalLoop=1;jettySize=auto;html=1;exitX=1;exitY=0.3333333333333333;exitDx=0;exitDy=0;exitPerimeter=0;entryX=0;entryY=0.5;entryDx=0;entryDy=0;" edge="1" parent="161mXI8yLU9irmFRyv6j-319">
          <mxGeometry relative="1" as="geometry">
            <mxPoint y="41.59021406727816" as="targetPoint" />
          </mxGeometry>
        </mxCell>
        <mxCell id="161mXI8yLU9irmFRyv6j-321" value="" style="group" vertex="1" connectable="0" parent="161mXI8yLU9irmFRyv6j-319">
          <mxGeometry width="120" height="62.38532110091743" as="geometry" />
        </mxCell>
        <mxCell id="161mXI8yLU9irmFRyv6j-322" value="" style="ellipse;whiteSpace=wrap;html=1;" vertex="1" parent="161mXI8yLU9irmFRyv6j-321">
          <mxGeometry width="120" height="62.38532110091743" as="geometry" />
        </mxCell>
        <mxCell id="161mXI8yLU9irmFRyv6j-323" value="Scanner Qr code" style="text;html=1;strokeColor=none;fillColor=none;align=center;verticalAlign=middle;whiteSpace=wrap;rounded=0;" vertex="1" parent="161mXI8yLU9irmFRyv6j-321">
          <mxGeometry x="30" y="15.596330275229358" width="60" height="23.394495412844037" as="geometry" />
        </mxCell>
        <mxCell id="161mXI8yLU9irmFRyv6j-324" style="edgeStyle=orthogonalEdgeStyle;rounded=0;orthogonalLoop=1;jettySize=auto;html=1;dashed=1;fontSize=12;endArrow=open;endFill=0;" edge="1" parent="1" target="161mXI8yLU9irmFRyv6j-279">
          <mxGeometry relative="1" as="geometry">
            <Array as="points">
              <mxPoint x="690" y="485" />
            </Array>
            <mxPoint x="540" y="485" as="sourcePoint" />
            <mxPoint x="1067" y="468" as="targetPoint" />
          </mxGeometry>
        </mxCell>
        <mxCell id="161mXI8yLU9irmFRyv6j-325" style="edgeStyle=orthogonalEdgeStyle;rounded=0;orthogonalLoop=1;jettySize=auto;html=1;dashed=1;fontSize=12;endArrow=open;endFill=0;exitX=1;exitY=0.5;exitDx=0;exitDy=0;entryX=0;entryY=0.5;entryDx=0;entryDy=0;" edge="1" parent="1" source="161mXI8yLU9irmFRyv6j-279" target="161mXI8yLU9irmFRyv6j-322">
          <mxGeometry relative="1" as="geometry">
            <Array as="points">
              <mxPoint x="760" y="495" />
              <mxPoint x="810" y="495" />
              <mxPoint x="810" y="543" />
            </Array>
            <mxPoint x="550" y="495" as="sourcePoint" />
            <mxPoint x="700" y="515" as="targetPoint" />
          </mxGeometry>
        </mxCell>
        <mxCell id="161mXI8yLU9irmFRyv6j-326" value="&amp;lt;&amp;lt;&lt;font style=&quot;font-size: 17px;&quot;&gt;include&lt;/font&gt;&amp;gt;&amp;gt;" style="text;html=1;strokeColor=none;fillColor=none;align=center;verticalAlign=middle;whiteSpace=wrap;rounded=0;fontSize=12;" vertex="1" parent="1">
          <mxGeometry x="730" y="526.1890519877677" width="60" height="31.192660550458715" as="geometry" />
        </mxCell>
        <mxCell id="161mXI8yLU9irmFRyv6j-327" value="&amp;lt;&amp;lt;&lt;font style=&quot;font-size: 17px;&quot;&gt;include&lt;/font&gt;&amp;gt;&amp;gt;" style="text;html=1;strokeColor=none;fillColor=none;align=center;verticalAlign=middle;whiteSpace=wrap;rounded=0;fontSize=12;" vertex="1" parent="1">
          <mxGeometry x="550" y="443.8090519877676" width="60" height="31.192660550458715" as="geometry" />
        </mxCell>
        <mxCell id="161mXI8yLU9irmFRyv6j-328" style="edgeStyle=orthogonalEdgeStyle;rounded=0;orthogonalLoop=1;jettySize=auto;html=1;exitX=1;exitY=0.5;exitDx=0;exitDy=0;dashed=1;fontSize=12;endArrow=open;endFill=0;entryX=0.407;entryY=0.991;entryDx=0;entryDy=0;entryPerimeter=0;" edge="1" parent="1" source="161mXI8yLU9irmFRyv6j-322" target="161mXI8yLU9irmFRyv6j-255">
          <mxGeometry relative="1" as="geometry">
            <Array as="points">
              <mxPoint x="1040" y="543" />
              <mxPoint x="1040" y="545" />
              <mxPoint x="1070" y="545" />
              <mxPoint x="1070" y="485" />
              <mxPoint x="1080" y="485" />
              <mxPoint x="1080" y="469" />
            </Array>
            <mxPoint x="1060" y="544.9200000000001" as="sourcePoint" />
            <mxPoint x="1297" y="566.9200000000001" as="targetPoint" />
          </mxGeometry>
        </mxCell>
        <mxCell id="161mXI8yLU9irmFRyv6j-329" style="edgeStyle=none;rounded=0;orthogonalLoop=1;jettySize=auto;html=1;entryX=0;entryY=0.5;entryDx=0;entryDy=0;exitX=1;exitY=0.3333333333333333;exitDx=0;exitDy=0;exitPerimeter=0;" edge="1" parent="1" source="161mXI8yLU9irmFRyv6j-250" target="161mXI8yLU9irmFRyv6j-269">
          <mxGeometry relative="1" as="geometry">
            <mxPoint x="710" y="265" as="targetPoint" />
            <mxPoint x="340" y="310" as="sourcePoint" />
          </mxGeometry>
        </mxCell>
        <mxCell id="161mXI8yLU9irmFRyv6j-330" value="" style="group" vertex="1" connectable="0" parent="1">
          <mxGeometry x="680" y="1262.8933027522937" width="120" height="62.38532110091743" as="geometry" />
        </mxCell>
        <mxCell id="161mXI8yLU9irmFRyv6j-331" style="edgeStyle=orthogonalEdgeStyle;rounded=0;orthogonalLoop=1;jettySize=auto;html=1;exitX=1;exitY=0.3333333333333333;exitDx=0;exitDy=0;exitPerimeter=0;entryX=0;entryY=0.5;entryDx=0;entryDy=0;" edge="1" parent="161mXI8yLU9irmFRyv6j-330">
          <mxGeometry relative="1" as="geometry">
            <mxPoint y="41.59021406727816" as="targetPoint" />
          </mxGeometry>
        </mxCell>
        <mxCell id="161mXI8yLU9irmFRyv6j-332" value="" style="group" vertex="1" connectable="0" parent="161mXI8yLU9irmFRyv6j-330">
          <mxGeometry width="120" height="62.38532110091743" as="geometry" />
        </mxCell>
        <mxCell id="161mXI8yLU9irmFRyv6j-333" value="" style="ellipse;whiteSpace=wrap;html=1;" vertex="1" parent="161mXI8yLU9irmFRyv6j-332">
          <mxGeometry width="120" height="62.38532110091743" as="geometry" />
        </mxCell>
        <mxCell id="161mXI8yLU9irmFRyv6j-334" value="s&#39;inscrire" style="text;html=1;strokeColor=none;fillColor=none;align=center;verticalAlign=middle;whiteSpace=wrap;rounded=0;" vertex="1" parent="161mXI8yLU9irmFRyv6j-332">
          <mxGeometry x="30" y="15.596330275229358" width="60" height="23.394495412844037" as="geometry" />
        </mxCell>
        <mxCell id="161mXI8yLU9irmFRyv6j-335" style="edgeStyle=orthogonalEdgeStyle;rounded=0;orthogonalLoop=1;jettySize=auto;html=1;entryX=1;entryY=0.5;entryDx=0;entryDy=0;dashed=1;fontSize=12;endArrow=open;endFill=0;exitX=0.75;exitY=1;exitDx=0;exitDy=0;" edge="1" parent="1" target="161mXI8yLU9irmFRyv6j-333" source="161mXI8yLU9irmFRyv6j-254">
          <mxGeometry relative="1" as="geometry">
            <mxPoint x="1131.1999999999998" y="537.0893883792048" as="sourcePoint" />
            <mxPoint x="1357" y="1117.89" as="targetPoint" />
            <Array as="points">
              <mxPoint x="1130" y="1294" />
            </Array>
          </mxGeometry>
        </mxCell>
        <mxCell id="161mXI8yLU9irmFRyv6j-336" value="&amp;lt;&amp;lt;&lt;font style=&quot;font-size: 17px;&quot;&gt;include&lt;/font&gt;&amp;gt;&amp;gt;" style="text;html=1;strokeColor=none;fillColor=none;align=center;verticalAlign=middle;whiteSpace=wrap;rounded=0;fontSize=12;" vertex="1" parent="1">
          <mxGeometry x="1000" y="1252.8886238532111" width="60" height="31.192660550458715" as="geometry" />
        </mxCell>
        <mxCell id="161mXI8yLU9irmFRyv6j-337" style="edgeStyle=none;rounded=0;orthogonalLoop=1;jettySize=auto;html=1;entryX=0;entryY=0.5;entryDx=0;entryDy=0;exitX=1;exitY=0.3333333333333333;exitDx=0;exitDy=0;exitPerimeter=0;" edge="1" parent="1" target="161mXI8yLU9irmFRyv6j-333">
          <mxGeometry relative="1" as="geometry">
            <mxPoint x="700" y="990" as="targetPoint" />
            <mxPoint x="310" y="1030" as="sourcePoint" />
          </mxGeometry>
        </mxCell>
        <mxCell id="161mXI8yLU9irmFRyv6j-338" style="edgeStyle=none;rounded=0;orthogonalLoop=1;jettySize=auto;html=1;exitX=1;exitY=0.3333333333333333;exitDx=0;exitDy=0;exitPerimeter=0;entryX=0;entryY=0.5;entryDx=0;entryDy=0;" edge="1" parent="1" target="161mXI8yLU9irmFRyv6j-342">
          <mxGeometry relative="1" as="geometry">
            <mxPoint x="340" y="770" as="sourcePoint" />
          </mxGeometry>
        </mxCell>
        <mxCell id="161mXI8yLU9irmFRyv6j-339" style="edgeStyle=orthogonalEdgeStyle;rounded=0;orthogonalLoop=1;jettySize=auto;html=1;exitX=1;exitY=0.5;exitDx=0;exitDy=0;dashed=1;fontSize=12;endArrow=none;endFill=0;" edge="1" parent="1" source="161mXI8yLU9irmFRyv6j-342">
          <mxGeometry relative="1" as="geometry">
            <mxPoint x="1100" y="853.662902846389" as="targetPoint" />
            <Array as="points">
              <mxPoint x="960" y="861" />
              <mxPoint x="960" y="860" />
              <mxPoint x="1100" y="860" />
            </Array>
          </mxGeometry>
        </mxCell>
        <mxCell id="161mXI8yLU9irmFRyv6j-340" value="&amp;lt;&amp;lt;&lt;font style=&quot;font-size: 17px;&quot;&gt;include&lt;/font&gt;&amp;gt;&amp;gt;" style="text;html=1;strokeColor=none;fillColor=none;align=center;verticalAlign=middle;whiteSpace=wrap;rounded=0;fontSize=12;" vertex="1" parent="1">
          <mxGeometry x="1000" y="822.0703363914372" width="60" height="31.192660550458715" as="geometry" />
        </mxCell>
        <mxCell id="161mXI8yLU9irmFRyv6j-341" value="" style="group" vertex="1" connectable="0" parent="1">
          <mxGeometry x="700" y="830.0003363914373" width="120" height="62.38532110091743" as="geometry" />
        </mxCell>
        <mxCell id="161mXI8yLU9irmFRyv6j-342" value="" style="ellipse;whiteSpace=wrap;html=1;" vertex="1" parent="161mXI8yLU9irmFRyv6j-341">
          <mxGeometry width="120" height="62.38532110091743" as="geometry" />
        </mxCell>
        <mxCell id="161mXI8yLU9irmFRyv6j-343" value="&lt;font style=&quot;font-size: 11px;&quot;&gt;Gérer les categories de son propre services&lt;/font&gt;" style="text;html=1;strokeColor=none;fillColor=none;align=center;verticalAlign=middle;whiteSpace=wrap;rounded=0;fontSize=17;" vertex="1" parent="161mXI8yLU9irmFRyv6j-341">
          <mxGeometry x="15" y="15.6" width="90" height="31.19" as="geometry" />
        </mxCell>
        <mxCell id="161mXI8yLU9irmFRyv6j-344" style="edgeStyle=none;rounded=0;orthogonalLoop=1;jettySize=auto;html=1;" edge="1" parent="1" source="161mXI8yLU9irmFRyv6j-250">
          <mxGeometry relative="1" as="geometry">
            <mxPoint x="700" y="173" as="targetPoint" />
            <mxPoint x="340" y="320" as="sourcePoint" />
          </mxGeometry>
        </mxCell>
        <mxCell id="161mXI8yLU9irmFRyv6j-345" value="" style="group" vertex="1" connectable="0" parent="1">
          <mxGeometry x="700" y="138.39755351681958" width="120" height="62.38532110091743" as="geometry" />
        </mxCell>
        <mxCell id="161mXI8yLU9irmFRyv6j-346" value="" style="group" vertex="1" connectable="0" parent="161mXI8yLU9irmFRyv6j-345">
          <mxGeometry width="120" height="62.38532110091743" as="geometry" />
        </mxCell>
        <mxCell id="161mXI8yLU9irmFRyv6j-347" value="" style="ellipse;whiteSpace=wrap;html=1;" vertex="1" parent="161mXI8yLU9irmFRyv6j-346">
          <mxGeometry width="120" height="62.38532110091743" as="geometry" />
        </mxCell>
        <mxCell id="161mXI8yLU9irmFRyv6j-348" value="Editer son profil" style="text;html=1;strokeColor=none;fillColor=none;align=center;verticalAlign=middle;whiteSpace=wrap;rounded=0;" vertex="1" parent="161mXI8yLU9irmFRyv6j-346">
          <mxGeometry x="30" y="15.596330275229358" width="60" height="23.394495412844037" as="geometry" />
        </mxCell>
        <mxCell id="161mXI8yLU9irmFRyv6j-349" style="edgeStyle=orthogonalEdgeStyle;rounded=0;orthogonalLoop=1;jettySize=auto;html=1;exitX=1;exitY=0.5;exitDx=0;exitDy=0;entryX=0.5;entryY=0;entryDx=0;entryDy=0;dashed=1;fontSize=12;endArrow=open;endFill=0;" edge="1" parent="1" source="161mXI8yLU9irmFRyv6j-347">
          <mxGeometry relative="1" as="geometry">
            <mxPoint x="1100" y="305" as="targetPoint" />
          </mxGeometry>
        </mxCell>
        <mxCell id="161mXI8yLU9irmFRyv6j-350" value="&amp;lt;&amp;lt;&lt;font style=&quot;font-size: 17px;&quot;&gt;include&lt;/font&gt;&amp;gt;&amp;gt;" style="text;html=1;strokeColor=none;fillColor=none;align=center;verticalAlign=middle;whiteSpace=wrap;rounded=0;fontSize=12;" vertex="1" parent="1">
          <mxGeometry x="980" y="138.39755351681958" width="60" height="31.192660550458715" as="geometry" />
        </mxCell>
        <mxCell id="161mXI8yLU9irmFRyv6j-351" style="edgeStyle=orthogonalEdgeStyle;rounded=0;orthogonalLoop=1;jettySize=auto;html=1;exitX=1;exitY=0.5;exitDx=0;exitDy=0;entryX=0.5;entryY=1;entryDx=0;entryDy=0;fontSize=12;dashed=1;endArrow=open;endFill=0;" edge="1" parent="1" source="161mXI8yLU9irmFRyv6j-353">
          <mxGeometry relative="1" as="geometry">
            <mxPoint x="1100" y="570" as="targetPoint" />
          </mxGeometry>
        </mxCell>
        <mxCell id="161mXI8yLU9irmFRyv6j-352" value="" style="group" vertex="1" connectable="0" parent="1">
          <mxGeometry x="690" y="1130" width="120" height="100" as="geometry" />
        </mxCell>
        <mxCell id="161mXI8yLU9irmFRyv6j-353" value="" style="ellipse;whiteSpace=wrap;html=1;" vertex="1" parent="161mXI8yLU9irmFRyv6j-352">
          <mxGeometry width="120" height="100.00000000000007" as="geometry" />
        </mxCell>
        <mxCell id="161mXI8yLU9irmFRyv6j-354" value="&lt;font style=&quot;font-size: 11px;&quot;&gt;Consulter historique des clients et des services&lt;/font&gt;" style="text;html=1;strokeColor=none;fillColor=none;align=center;verticalAlign=middle;whiteSpace=wrap;rounded=0;fontSize=17;" vertex="1" parent="161mXI8yLU9irmFRyv6j-352">
          <mxGeometry x="30" y="24.999999999999954" width="60" height="50.000000000000036" as="geometry" />
        </mxCell>
        <mxCell id="161mXI8yLU9irmFRyv6j-355" value="&amp;lt;&amp;lt;&lt;font style=&quot;font-size: 17px;&quot;&gt;include&lt;/font&gt;&amp;gt;&amp;gt;" style="text;html=1;strokeColor=none;fillColor=none;align=center;verticalAlign=middle;whiteSpace=wrap;rounded=0;fontSize=12;" vertex="1" parent="1">
          <mxGeometry x="1000" y="1139.9962996941895" width="60" height="31.192660550458715" as="geometry" />
        </mxCell>
        <mxCell id="161mXI8yLU9irmFRyv6j-356" style="rounded=0;orthogonalLoop=1;jettySize=auto;html=1;exitX=1;exitY=0.3333333333333333;exitDx=0;exitDy=0;exitPerimeter=0;entryX=0;entryY=0.5;entryDx=0;entryDy=0;" edge="1" parent="1" target="161mXI8yLU9irmFRyv6j-353">
          <mxGeometry relative="1" as="geometry">
            <mxPoint x="310" y="1030" as="sourcePoint" />
            <mxPoint x="700" y="1094" as="targetPoint" />
          </mxGeometry>
        </mxCell>
      </root>
    </mxGraphModel>
  </diagram>
</mxfile>
